<svg width="119" height="35" viewBox="0 0 119 35" fill="none" xmlns="http://www.w3.org/2000/svg">
<path d="M113.787 35H5.31932C2.71835 35 0.607422 32.8891 0.607422 30.2881V4.7119C0.607422 2.11093 2.71835 0 5.31932 0H113.787C116.388 0 118.499 2.11093 118.499 4.7119V30.2881C118.499 32.8891 116.388 35 113.787 35Z" fill="black"/>
<path d="M18.339 10.7432C18.3767 10.7432 18.3955 10.7432 18.4144 10.7432C18.6405 10.7432 18.8479 10.7243 19.074 10.6866C19.9599 10.5359 20.7138 10.1212 21.3546 9.51809C22.297 8.61341 22.8624 7.5014 22.9943 6.20091C23.032 5.8805 23.0132 5.56009 22.9566 5.23969C22.919 5.23969 22.8813 5.23969 22.8436 5.23969C22.6739 5.25853 22.5043 5.27738 22.3535 5.31508C21.3923 5.54125 20.563 5.99359 19.8468 6.6721C19.1871 7.29407 18.7348 8.04798 18.4521 8.91497C18.3013 9.405 18.2259 9.91389 18.2824 10.4228C18.3013 10.5547 18.3201 10.6489 18.339 10.7432Z" fill="white"/>
<path d="M28.2534 21.6371C27.5937 21.3921 27.0283 21.0151 26.5382 20.5062C25.7278 19.6581 25.2943 18.6592 25.1812 17.4906C25.1058 16.6802 25.2189 15.8886 25.5582 15.1535C25.9917 14.1923 26.6702 13.4384 27.5937 12.9107C27.6314 12.8918 27.6691 12.873 27.7068 12.8541C27.6879 12.8353 27.6691 12.8164 27.6691 12.7976C27.0848 12.0625 26.3875 11.4783 25.5582 11.0636C25.0304 10.7997 24.4838 10.6113 23.8996 10.5547C23.353 10.4793 22.8253 10.517 22.2787 10.6113C21.864 10.6866 21.4494 10.8186 21.0536 10.9694C20.7143 11.1013 20.3751 11.2144 20.0358 11.3275C19.6023 11.4594 19.1688 11.4971 18.7165 11.4406C18.3207 11.384 17.9249 11.2709 17.5479 11.139C17.1521 11.0071 16.7752 10.8751 16.3794 10.7432C15.9836 10.6113 15.5501 10.5359 15.1354 10.517C14.2684 10.4605 13.4391 10.6678 12.6664 11.0448C11.8371 11.4594 11.1586 12.0248 10.5743 12.741C10.2916 13.0991 10.0277 13.4572 9.82041 13.8719C9.36807 14.852 9.12305 15.8697 9.12305 16.9441C9.12305 17.2268 9.12305 17.5095 9.12305 17.7922C9.12305 17.9241 9.12305 18.0372 9.1419 18.1691C9.17959 18.678 9.25498 19.1869 9.34922 19.6958C9.63193 21.0717 10.1031 22.3722 10.7816 23.6161C11.1209 24.2381 11.4978 24.8224 11.8936 25.3878C12.2141 25.8213 12.5345 26.2359 12.9303 26.6129C13.3261 26.9898 13.7407 27.3291 14.2496 27.5364C14.6077 27.6872 14.9658 27.7814 15.3616 27.7626C15.7574 27.7626 16.1344 27.6683 16.4925 27.5364C16.7375 27.4422 16.9825 27.3291 17.2275 27.216C17.7929 26.971 18.3584 26.839 18.9803 26.8202C19.395 26.8013 19.8285 26.839 20.2243 26.9333C20.6012 27.0275 20.9593 27.1595 21.3174 27.3291C21.5625 27.4422 21.8263 27.5741 22.0902 27.6495C22.5425 27.7814 23.0137 27.8191 23.4849 27.706C23.8996 27.5929 24.2765 27.4045 24.6158 27.1595C25.0304 26.8579 25.3697 26.5186 25.7089 26.1417C26.0859 25.7082 26.4251 25.237 26.7456 24.7658C27.0283 24.3323 27.3298 23.88 27.5748 23.4276C27.8764 22.881 28.1214 22.3156 28.3853 21.7313C28.3099 21.656 28.2722 21.656 28.2534 21.6371Z" fill="white"/>
<path d="M62.6011 23.2538C63.3671 23.2538 63.9461 23.7001 63.9461 24.6892V26.5468H63.0052V24.834C63.0052 24.3093 62.764 24.068 62.3478 24.068C61.8955 24.068 61.5698 24.3454 61.5698 24.9425V26.5468H60.6289V23.302H61.5276V23.682C61.7809 23.4046 62.1608 23.2538 62.6011 23.2538Z" fill="white"/>
<path d="M59.2374 22.8497C58.8876 22.8497 58.6523 22.6205 58.6523 22.325C58.6523 22.0294 58.8876 21.8002 59.2374 21.8002C59.5872 21.8002 59.8224 22.0174 59.8224 22.3069C59.8224 22.6205 59.5872 22.8497 59.2374 22.8497ZM58.7669 26.5468V23.302H59.7078V26.5468H58.7669Z" fill="white"/>
<path d="M57.4316 23.302H58.3363L56.8707 26.7458C56.5571 27.5299 56.1108 27.7651 55.5258 27.7651C55.1941 27.7651 54.8322 27.6566 54.6211 27.4696L54.9649 26.8001C55.1096 26.9268 55.3087 27.0052 55.4956 27.0052C55.755 27.0052 55.8997 26.8906 56.0264 26.6011L56.0384 26.5709L54.6332 23.302H55.6042L56.5149 25.5034L57.4316 23.302Z" fill="white"/>
<path d="M52.6814 23.2538C53.8032 23.2538 54.533 23.9594 54.533 24.9244C54.533 25.8955 53.7911 26.5951 52.802 26.5951C51.8491 26.5951 51.1133 25.9558 51.1133 24.9124C51.1133 24.84 51.1253 24.7375 51.1314 24.6591H53.5861C53.4956 24.255 53.1518 24.0077 52.6573 24.0077C52.3135 24.0077 52.0662 24.1102 51.8431 24.3213L51.3425 23.7785C51.644 23.4347 52.0964 23.2538 52.6814 23.2538ZM52.796 25.8834C53.2242 25.8834 53.5318 25.6241 53.5981 25.2079H51.9999C52.0662 25.618 52.3738 25.8834 52.796 25.8834Z" fill="white"/>
<path d="M49.4922 26.5468V22.0717H50.4331V26.5468H49.4922Z" fill="white"/>
<path d="M47.8814 26.5468L46.8561 25.2742L46.4038 25.7206V26.5468H45.4629V22.0717H46.4038V24.6048L47.7789 23.302H48.9007L47.5497 24.6771L49.0213 26.5468H47.8814Z" fill="white"/>
<path d="M42.2892 22.8557C42.0539 22.8557 41.867 22.6868 41.867 22.4395C41.867 22.1923 42.0539 22.0234 42.2892 22.0234C42.5244 22.0234 42.7053 22.1923 42.7053 22.4395C42.7053 22.6868 42.5244 22.8557 42.2892 22.8557ZM43.5075 22.8557C43.2722 22.8557 43.0913 22.6868 43.0913 22.4395C43.0913 22.1923 43.2722 22.0234 43.5075 22.0234C43.7427 22.0234 43.9296 22.1923 43.9296 22.4395C43.9296 22.6868 43.7427 22.8557 43.5075 22.8557ZM43.604 23.302H44.5448V26.5468H43.6522V26.1608C43.4049 26.4443 43.0431 26.5951 42.645 26.5951C41.8308 26.5951 41.2578 26.1367 41.2578 25.1355V23.302H42.1987V24.9968C42.1987 25.5396 42.4399 25.7808 42.8561 25.7808C43.2903 25.7808 43.604 25.5034 43.604 24.9063V23.302Z" fill="white"/>
<path d="M39.9395 23.302H40.8441L39.3786 26.7458C39.0649 27.5299 38.6186 27.7651 38.0336 27.7651C37.7019 27.7651 37.34 27.6566 37.1289 27.4696L37.4727 26.8001C37.6174 26.9268 37.8165 27.0052 38.0034 27.0052C38.2628 27.0052 38.4075 26.8906 38.5342 26.6011L38.5462 26.5709L37.141 23.302H38.112L39.0227 25.5034L39.9395 23.302Z" fill="white"/>
<path d="M103.863 11.9951C105.012 11.9951 105.88 12.6645 105.88 14.1482V16.9346H104.469V14.3653C104.469 13.5783 104.107 13.2164 103.483 13.2164C102.804 13.2164 102.316 13.6325 102.316 14.5282V16.9346H100.904V12.0674H102.252V12.6374C102.632 12.2212 103.202 11.9951 103.863 11.9951Z" fill="white"/>
<path d="M97.2349 11.9951C98.7186 11.9951 99.578 12.6826 99.578 14.1573V16.9346H98.2572V16.3285C97.9948 16.7718 97.4882 17.007 96.7735 17.007C95.6336 17.007 94.9551 16.3737 94.9551 15.5324C94.9551 14.6729 95.5612 14.0758 97.0449 14.0758H98.1667C98.1667 13.4697 97.8048 13.1169 97.0449 13.1169C96.5292 13.1169 95.9955 13.2888 95.6426 13.5692L95.136 12.5831C95.6698 12.2031 96.4569 11.9951 97.2349 11.9951ZM97.1263 16.0571C97.5968 16.0571 98.0039 15.84 98.1667 15.3967V14.8991H97.1987C96.5383 14.8991 96.3302 15.1434 96.3302 15.469C96.3302 15.8219 96.6287 16.0571 97.1263 16.0571Z" fill="white"/>
<path d="M92.5073 10.2218H93.9186V16.9346H92.5707V16.3737C92.2178 16.7989 91.7022 17.0069 91.0508 17.0069C89.6757 17.0069 88.6172 16.0299 88.6172 14.501C88.6172 12.972 89.6757 11.995 91.0508 11.995C91.6479 11.995 92.1545 12.185 92.5073 12.583V10.2218ZM91.2951 15.8489C91.9917 15.8489 92.5345 15.3423 92.5345 14.501C92.5345 13.6596 91.9917 13.153 91.2951 13.153C90.5894 13.153 90.0466 13.6596 90.0466 14.501C90.0466 15.3423 90.5894 15.8489 91.2951 15.8489Z" fill="white"/>
<path d="M85.1562 14.9532V13.8224H87.7165V14.9532H85.1562Z" fill="white"/>
<path d="M84.2604 14.5191C84.2604 14.6277 84.2423 14.7815 84.2333 14.8991H80.5512C80.6869 15.5052 81.2026 15.8762 81.9444 15.8762C82.4601 15.8762 82.831 15.7224 83.1658 15.4057L83.9166 16.2199C83.4643 16.7356 82.7858 17.007 81.9082 17.007C80.2255 17.007 79.1309 15.9485 79.1309 14.501C79.1309 13.0445 80.2436 11.9951 81.7273 11.9951C83.1567 11.9951 84.2604 12.954 84.2604 14.5191ZM81.7364 13.0626C81.094 13.0626 80.6326 13.4516 80.5331 14.0758H82.9305C82.831 13.4606 82.3696 13.0626 81.7364 13.0626Z" fill="white"/>
<path d="M76.9769 12.7098C77.3207 12.2393 77.8997 11.9951 78.6506 11.9951V13.2978C78.5329 13.2888 78.4425 13.2797 78.3339 13.2797C77.5559 13.2797 77.0402 13.7049 77.0402 14.6367V16.9346H75.6289V12.0674H76.9769V12.7098Z" fill="white"/>
<path d="M71.9708 17.007C70.4238 17.007 69.293 15.9666 69.293 14.501C69.293 13.0354 70.4238 11.9951 71.9708 11.9951C73.5178 11.9951 74.6397 13.0354 74.6397 14.501C74.6397 15.9666 73.5178 17.007 71.9708 17.007ZM71.9708 15.849C72.6765 15.849 73.2103 15.3424 73.2103 14.501C73.2103 13.6597 72.6765 13.1531 71.9708 13.1531C71.2652 13.1531 70.7224 13.6597 70.7224 14.501C70.7224 15.3424 71.2652 15.849 71.9708 15.849Z" fill="white"/>
<path d="M68.5863 15.7042L68.9663 16.6993C68.6768 16.9074 68.2516 17.0069 67.8174 17.0069C66.6684 17.0069 65.9989 16.4189 65.9989 15.2609V13.2615H65.248V12.1759H65.9989V10.9908H67.4102V12.1759H68.6225V13.2615H67.4102V15.2428C67.4102 15.659 67.6364 15.8851 68.0164 15.8851C68.2245 15.8851 68.4325 15.8218 68.5863 15.7042Z" fill="white"/>
<path d="M62.1897 17.0431C61.1855 17.0431 60.1722 16.7445 59.6113 16.3103L60.1089 15.2066C60.6427 15.5956 61.4388 15.867 62.1987 15.867C63.0672 15.867 63.4201 15.5775 63.4201 15.1885C63.4201 14.0033 59.738 14.8176 59.738 12.4654C59.738 11.3888 60.6065 10.4932 62.4068 10.4932C63.2029 10.4932 64.0171 10.6831 64.6052 11.0541L64.1528 12.1668C63.5648 11.8321 62.9587 11.6693 62.3978 11.6693C61.5293 11.6693 61.1945 11.9949 61.1945 12.393C61.1945 13.56 64.8766 12.7549 64.8766 15.0799C64.8766 16.1384 63.9991 17.0431 62.1897 17.0431Z" fill="white"/>
<path d="M53.9824 11.9951C55.3484 11.9951 56.4069 12.9721 56.4069 14.501C56.4069 16.03 55.3484 17.007 53.9824 17.007C53.3762 17.007 52.8787 16.817 52.5168 16.419V18.6897H51.1055V12.0674H52.4534V12.6283C52.8063 12.2031 53.331 11.9951 53.9824 11.9951ZM53.7381 15.849C54.4438 15.849 54.9775 15.3424 54.9775 14.501C54.9775 13.6597 54.4438 13.1531 53.7381 13.1531C53.0324 13.1531 52.4987 13.6597 52.4987 14.501C52.4987 15.3424 53.0324 15.849 53.7381 15.849Z" fill="white"/>
<path d="M47.6894 11.9951C49.0555 11.9951 50.114 12.9721 50.114 14.501C50.114 16.03 49.0555 17.007 47.6894 17.007C47.0833 17.007 46.5857 16.817 46.2238 16.419V18.6897H44.8125V12.0674H46.1605V12.6283C46.5133 12.2031 47.038 11.9951 47.6894 11.9951ZM47.4451 15.849C48.1508 15.849 48.6846 15.3424 48.6846 14.501C48.6846 13.6597 48.1508 13.1531 47.4451 13.1531C46.7395 13.1531 46.2057 13.6597 46.2057 14.501C46.2057 15.3424 46.7395 15.849 47.4451 15.849Z" fill="white"/>
<path d="M42.6712 16.9346L42.1103 15.5776H39.1701L38.6092 16.9346H37.1074L39.93 10.6018H41.3775L44.2092 16.9346H42.6712ZM39.6405 14.4648H41.6489L40.6447 12.0403L39.6405 14.4648Z" fill="white"/>
</svg>
