<svg width="16" height="16" viewBox="0 0 16 16" fill="none" xmlns="http://www.w3.org/2000/svg">
<path d="M8 3.5102C10.1141 3.5102 11.8868 4.97131 12.3636 6.93878H10.2077C9.81232 6.11768 8.97233 5.55102 8 5.55102C6.64747 5.55102 5.55102 6.64747 5.55102 8C5.55102 9.35253 6.64747 10.449 8 10.449C9.00424 10.449 9.8673 9.84452 10.2452 8.97959H12.3826C11.9356 10.9881 10.1432 12.4898 8 12.4898C5.52035 12.4898 3.5102 10.4796 3.5102 8C3.5102 5.52035 5.52035 3.5102 8 3.5102Z" fill="black"/>
<path fill-rule="evenodd" clip-rule="evenodd" d="M8 16C12.4183 16 16 12.4183 16 8C16 3.58172 12.4183 0 8 0C3.58172 0 0 3.58172 0 8C0 12.4183 3.58172 16 8 16ZM8 14.3673C11.5166 14.3673 14.3673 11.5166 14.3673 8C14.3673 4.48341 11.5166 1.63265 8 1.63265C4.48341 1.63265 1.63265 4.48341 1.63265 8C1.63265 11.5166 4.48341 14.3673 8 14.3673Z" fill="black"/>
</svg>
