<svg width="16" height="17" viewBox="0 0 16 17" fill="none" xmlns="http://www.w3.org/2000/svg">
<path d="M11.334 5.16667H12.0007V5.83333C12.0007 6.01014 12.0709 6.17971 12.1959 6.30474C12.3209 6.42976 12.4905 6.5 12.6673 6.5C12.8441 6.5 13.0137 6.42976 13.1387 6.30474C13.2637 6.17971 13.334 6.01014 13.334 5.83333V5.16667H14.0007C14.1775 5.16667 14.347 5.09643 14.4721 4.9714C14.5971 4.84638 14.6673 4.67681 14.6673 4.5C14.6673 4.32319 14.5971 4.15362 14.4721 4.0286C14.347 3.90357 14.1775 3.83333 14.0007 3.83333H13.334V3.16667C13.334 2.98986 13.2637 2.82029 13.1387 2.69526C13.0137 2.57024 12.8441 2.5 12.6673 2.5C12.4905 2.5 12.3209 2.57024 12.1959 2.69526C12.0709 2.82029 12.0007 2.98986 12.0007 3.16667V3.83333H11.334C11.1572 3.83333 10.9876 3.90357 10.8626 4.0286C10.7376 4.15362 10.6673 4.32319 10.6673 4.5C10.6673 4.67681 10.7376 4.84638 10.8626 4.9714C10.9876 5.09643 11.1572 5.16667 11.334 5.16667ZM14.0007 7.83333C13.8238 7.83333 13.6543 7.90357 13.5292 8.0286C13.4042 8.15362 13.334 8.32319 13.334 8.5V12.5C13.334 12.6768 13.2637 12.8464 13.1387 12.9714C13.0137 13.0964 12.8441 13.1667 12.6673 13.1667H3.33398C3.15717 13.1667 2.9876 13.0964 2.86258 12.9714C2.73756 12.8464 2.66732 12.6768 2.66732 12.5V6.10667L6.58732 10.0333C6.96232 10.4079 7.47065 10.6182 8.00065 10.6182C8.53065 10.6182 9.03898 10.4079 9.41398 10.0333L11.0607 8.38667C11.1862 8.26113 11.2567 8.09087 11.2567 7.91333C11.2567 7.7358 11.1862 7.56554 11.0607 7.44C10.9351 7.31446 10.7649 7.24394 10.5873 7.24394C10.4098 7.24394 10.2395 7.31446 10.114 7.44L8.46732 9.08667C8.3427 9.20882 8.17515 9.27724 8.00065 9.27724C7.82615 9.27724 7.6586 9.20882 7.53398 9.08667L3.60732 5.16667H8.66732C8.84413 5.16667 9.0137 5.09643 9.13872 4.9714C9.26375 4.84638 9.33398 4.67681 9.33398 4.5C9.33398 4.32319 9.26375 4.15362 9.13872 4.0286C9.0137 3.90357 8.84413 3.83333 8.66732 3.83333H3.33398C2.80355 3.83333 2.29484 4.04405 1.91977 4.41912C1.5447 4.79419 1.33398 5.3029 1.33398 5.83333V12.5C1.33398 13.0304 1.5447 13.5391 1.91977 13.9142C2.29484 14.2893 2.80355 14.5 3.33398 14.5H12.6673C13.1978 14.5 13.7065 14.2893 14.0815 13.9142C14.4566 13.5391 14.6673 13.0304 14.6673 12.5V8.5C14.6673 8.32319 14.5971 8.15362 14.4721 8.0286C14.347 7.90357 14.1775 7.83333 14.0007 7.83333Z" fill="black"/>
</svg>
