<svg width="16" height="17" viewBox="0 0 16 17" fill="none" xmlns="http://www.w3.org/2000/svg">
<path d="M14.2728 6.26C14.2728 6.26 14.2728 6.26 14.2728 6.22667C13.8031 4.94415 12.9508 3.83686 11.8311 3.05458C10.7115 2.2723 9.37865 1.85278 8.01281 1.85278C6.64698 1.85278 5.3141 2.2723 4.19449 3.05458C3.07487 3.83686 2.22255 4.94415 1.75281 6.22667C1.75281 6.22667 1.75281 6.22667 1.75281 6.26C1.22823 7.70727 1.22823 9.29274 1.75281 10.74C1.75281 10.74 1.75281 10.74 1.75281 10.7733C2.22255 12.0559 3.07487 13.1631 4.19449 13.9454C5.3141 14.7277 6.64698 15.1472 8.01281 15.1472C9.37865 15.1472 10.7115 14.7277 11.8311 13.9454C12.9508 13.1631 13.8031 12.0559 14.2728 10.7733C14.2728 10.7733 14.2728 10.7733 14.2728 10.74C14.7974 9.29274 14.7974 7.70727 14.2728 6.26V6.26ZM2.83948 9.83334C2.6083 8.95948 2.6083 8.04053 2.83948 7.16667H4.07948C3.97283 8.05236 3.97283 8.94765 4.07948 9.83334H2.83948ZM3.38615 11.1667H4.31948C4.47596 11.7612 4.69962 12.336 4.98615 12.88C4.33234 12.4346 3.78581 11.8494 3.38615 11.1667ZM4.31948 5.83334H3.38615C3.78006 5.15273 4.31961 4.56765 4.96615 4.12C4.68652 4.66483 4.46957 5.23962 4.31948 5.83334V5.83334ZM7.33281 13.6333C6.51399 13.0325 5.93891 12.1568 5.71281 11.1667H7.33281V13.6333ZM7.33281 9.83334H5.42615C5.30174 8.9488 5.30174 8.0512 5.42615 7.16667H7.33281V9.83334ZM7.33281 5.83334H5.71281C5.93891 4.84318 6.51399 3.96755 7.33281 3.36667V5.83334ZM12.6128 5.83334H11.6795C11.523 5.23877 11.2993 4.66396 11.0128 4.12C11.6666 4.56538 12.2131 5.15063 12.6128 5.83334ZM8.66615 3.36667C9.48497 3.96755 10.06 4.84318 10.2861 5.83334H8.66615V3.36667ZM8.66615 13.6333V11.1667H10.2861C10.06 12.1568 9.48497 13.0325 8.66615 13.6333V13.6333ZM10.5728 9.83334H8.66615V7.16667H10.5728C10.6972 8.0512 10.6972 8.9488 10.5728 9.83334ZM11.0328 12.88C11.3193 12.336 11.543 11.7612 11.6995 11.1667H12.6328C12.2331 11.8494 11.6866 12.4346 11.0328 12.88ZM13.1595 9.83334H11.9195C11.9737 9.39097 12.0004 8.94567 11.9995 8.5C12.0002 8.05434 11.9735 7.60905 11.9195 7.16667H13.1595C13.3907 8.04053 13.3907 8.95948 13.1595 9.83334Z" fill="black"/>
</svg>
