<svg width="119" height="35" viewBox="0 0 119 35" fill="none" xmlns="http://www.w3.org/2000/svg">
<path d="M113.788 35.0002H5.31936C2.71837 35.0002 0.607422 32.8893 0.607422 30.2883V4.71193C0.607422 2.11095 2.71837 0 5.31936 0H113.788C116.389 0 118.5 2.11095 118.5 4.71193V30.2883C118.5 32.8893 116.389 35.0002 113.788 35.0002Z" fill="black"/>
<path d="M9.37012 6.5968C11.7449 8.89623 20.6222 17.4719 20.6222 17.4719L9.57745 28.5733C9.29473 28.3282 9.1251 27.9701 9.1251 27.5555V7.38841C9.10625 7.068 9.21934 6.80413 9.37012 6.5968Z" fill="#02D9FE"/>
<path d="M24.2777 13.7966L20.6212 17.4531C20.6212 17.4531 11.744 8.87736 9.36914 6.57793C9.7461 6.0502 10.5 5.82403 11.1408 6.20098L24.2777 13.7966Z" fill="#02F079"/>
<path d="M24.204 21.1472L11.1425 28.7052C10.6148 29.0256 9.99278 28.9125 9.57812 28.5544L20.6229 17.4531L24.204 21.1472Z" fill="#FA3548"/>
<path d="M28.5768 18.6216L24.2041 21.1472L20.623 17.4531L24.2795 13.7966L28.5956 16.2845C29.4815 16.8123 29.4815 18.1128 28.5768 18.6216Z" fill="#FFD200"/>
<path d="M83.8661 22.0331H84.8311V26.255H84.0289L81.924 23.6917V26.255H80.959V22.0331H81.7672L83.8661 24.5964V22.0331Z" fill="white"/>
<path d="M79.4207 21.6592C79.1252 21.6592 78.9141 21.4421 78.9141 21.1466C78.9141 20.8571 79.1252 20.64 79.4207 20.64C79.7162 20.64 79.9273 20.8571 79.9273 21.1466C79.9273 21.4421 79.7162 21.6592 79.4207 21.6592ZM78.9322 26.2551V22.0332H79.9092V26.2551H78.9322Z" fill="white"/>
<path d="M73.9023 26.255V22.0331H75.8203C77.2015 22.0331 78.1484 22.8655 78.1484 24.1441C78.1484 25.4227 77.2015 26.255 75.8203 26.255H73.9023ZM74.8794 25.4529H75.772C76.6104 25.4529 77.1592 24.9523 77.1592 24.1441C77.1592 23.3359 76.6104 22.8353 75.772 22.8353H74.8794V25.4529Z" fill="white"/>
<path d="M70.7796 25.471H73.0775V26.255H69.8086V22.0331H72.9991V22.8172H70.7796V23.734H72.7398V24.4939H70.7796V25.471Z" fill="white"/>
<path d="M64.9758 21.9608C66.3147 21.9608 67.2677 22.8775 67.2677 24.138C67.2677 25.4167 66.3207 26.3274 65.0421 26.3274C63.7454 26.3274 62.8105 25.4106 62.8105 24.1019V23.8968H66.2665C66.17 23.2514 65.6452 22.7931 64.9697 22.7931C64.5355 22.7931 64.053 22.9619 63.7454 23.2876L63.1604 22.6543C63.5584 22.2442 64.24 21.9608 64.9758 21.9608ZM65.0421 25.5494C65.7056 25.5494 66.1458 25.1694 66.2544 24.5602H63.8238C63.9324 25.1754 64.3847 25.5494 65.0421 25.5494Z" fill="white"/>
<path d="M58.0469 26.255V22.0331H59.9648C61.346 22.0331 62.2929 22.8655 62.2929 24.1441C62.2929 25.4227 61.346 26.255 59.9648 26.255H58.0469ZM59.0239 25.4529H59.9166C60.7549 25.4529 61.3038 24.9523 61.3038 24.1441C61.3038 23.3359 60.7549 22.8353 59.9166 22.8353H59.0239V25.4529Z" fill="white"/>
<path d="M54.3594 26.255V22.0331H55.3364V25.4589H57.4534V26.255H54.3594Z" fill="white"/>
<path d="M51.2805 21.9608C52.6194 21.9608 53.5723 22.8775 53.5723 24.138C53.5723 25.4167 52.6254 26.3274 51.3468 26.3274C50.0501 26.3274 49.1152 25.4106 49.1152 24.1019V23.8968H52.5712C52.4747 23.2514 51.9499 22.7931 51.2744 22.7931C50.8402 22.7931 50.3577 22.9619 50.0501 23.2876L49.465 22.6543C49.8631 22.2442 50.5446 21.9608 51.2805 21.9608ZM51.3468 25.5494C52.0102 25.5494 52.4505 25.1694 52.5591 24.5602H50.1285C50.2371 25.1754 50.6894 25.5494 51.3468 25.5494Z" fill="white"/>
<path d="M44.55 21.9608C45.8889 21.9608 46.8419 22.8775 46.8419 24.138C46.8419 25.4167 45.895 26.3274 44.6163 26.3274C43.3196 26.3274 42.3848 25.4106 42.3848 24.1019V23.8968H45.8407C45.7442 23.2514 45.2195 22.7931 44.544 22.7931C44.1097 22.7931 43.6272 22.9619 43.3196 23.2876L42.7346 22.6543C43.1326 22.2442 43.8142 21.9608 44.55 21.9608ZM44.6163 25.5494C45.2798 25.5494 45.7201 25.1694 45.8286 24.5602H43.398C43.5066 25.1754 43.9589 25.5494 44.6163 25.5494Z" fill="white"/>
<path d="M37.6211 26.255V22.0331H39.539C40.9202 22.0331 41.8671 22.8655 41.8671 24.1441C41.8671 25.4227 40.9202 26.255 39.539 26.255H37.6211ZM38.5982 25.4529H39.4908C40.3291 25.4529 40.878 24.9523 40.878 24.1441C40.878 23.3359 40.3291 22.8353 39.4908 22.8353H38.5982V25.4529Z" fill="white"/>
<path d="M36.5436 22.7388C36.7426 22.8233 36.8633 23.0042 36.8633 23.2515C36.8633 23.6013 36.616 23.8305 36.2843 23.8305C35.9465 23.8305 35.6992 23.5953 35.6992 23.2515C35.6992 23.0947 35.7233 22.9801 35.8621 22.6484L36.2119 21.7798H36.809L36.5436 22.7388Z" fill="white"/>
<path d="M104.877 10.5586H106.574L103.826 17.0158C103.237 18.486 102.401 18.927 101.304 18.927C100.682 18.927 100.003 18.7234 99.6074 18.3729L100.252 17.1176C100.523 17.3551 100.897 17.5021 101.247 17.5021C101.733 17.5021 102.005 17.2872 102.242 16.7444L102.265 16.6879L99.63 10.5586H101.451L103.158 14.6862L104.877 10.5586Z" fill="white"/>
<path d="M96.0724 10.4681C97.927 10.4681 99.0014 11.3276 99.0014 13.1709V16.6427H97.3503V15.885C97.0224 16.4391 96.3891 16.7331 95.4957 16.7331C94.0708 16.7331 93.2227 15.9415 93.2227 14.8898C93.2227 13.8155 93.9803 13.0691 95.8349 13.0691H97.2372C97.2372 12.3114 96.7849 11.8704 95.8349 11.8704C95.1904 11.8704 94.5231 12.0853 94.0821 12.4358L93.4488 11.2032C94.116 10.7282 95.0999 10.4681 96.0724 10.4681ZM95.9367 15.5457C96.5248 15.5457 97.0337 15.2743 97.2372 14.7202V14.0982H96.0272C95.2017 14.0982 94.9416 14.4035 94.9416 14.8107C94.9416 15.2517 95.3148 15.5457 95.9367 15.5457Z" fill="white"/>
<path d="M90.1699 16.6427V8.25165H91.9341V16.6427H90.1699Z" fill="white"/>
<path d="M85.3914 8.72662C87.5061 8.72662 88.8292 9.82356 88.8292 11.599C88.8292 13.3632 87.5061 14.4601 85.3914 14.4601H83.7968V16.6427H81.9648V8.72662H85.3914ZM85.2896 12.9674C86.4091 12.9674 86.9746 12.4585 86.9746 11.599C86.9746 10.7283 86.4091 10.2194 85.2896 10.2194H83.7968V12.9674H85.2896Z" fill="white"/>
<path d="M77.3671 13.6233C77.3671 13.759 77.3445 13.9512 77.3332 14.0982H72.7305C72.9002 14.8559 73.5448 15.3195 74.4721 15.3195C75.1167 15.3195 75.5803 15.1273 75.9987 14.7315L76.9374 15.7493C76.3719 16.3939 75.5238 16.7331 74.4268 16.7331C72.3234 16.7331 70.9551 15.41 70.9551 13.6006C70.9551 11.7799 72.346 10.4681 74.2007 10.4681C75.9874 10.4681 77.3671 11.6669 77.3671 13.6233ZM74.212 11.8026C73.4091 11.8026 72.8323 12.2888 72.7079 13.0691H75.7047C75.5803 12.3001 75.0036 11.8026 74.212 11.8026Z" fill="white"/>
<path d="M67.959 16.6427V8.25165H69.7231V16.6427H67.959Z" fill="white"/>
<path d="M64.5979 10.5586H66.2716V15.6249C66.2716 17.8866 65.0503 18.927 62.8564 18.927C61.7029 18.927 60.5834 18.6443 59.8709 18.0902L60.5721 16.8236C61.0923 17.242 61.9404 17.5134 62.7207 17.5134C63.9646 17.5134 64.5075 16.948 64.5075 15.8511V15.591C64.0438 16.0998 63.3766 16.3486 62.585 16.3486C60.9 16.3486 59.543 15.1838 59.543 13.4084C59.543 11.6329 60.9 10.4681 62.585 10.4681C63.4331 10.4681 64.1343 10.7509 64.5979 11.3389V10.5586ZM62.9356 14.9011C63.8629 14.9011 64.5301 14.3018 64.5301 13.4084C64.5301 12.515 63.8629 11.9156 62.9356 11.9156C62.0083 11.9156 61.3297 12.515 61.3297 13.4084C61.3297 14.3018 62.0083 14.9011 62.9356 14.9011Z" fill="white"/>
<path d="M55.4333 16.7331C53.4995 16.7331 52.0859 15.4326 52.0859 13.6006C52.0859 11.7686 53.4995 10.4681 55.4333 10.4681C57.3671 10.4681 58.7693 11.7686 58.7693 13.6006C58.7693 15.4326 57.3671 16.7331 55.4333 16.7331ZM55.4333 15.2856C56.3154 15.2856 56.9826 14.6523 56.9826 13.6006C56.9826 12.5489 56.3154 11.9156 55.4333 11.9156C54.5512 11.9156 53.8727 12.5489 53.8727 13.6006C53.8727 14.6523 54.5512 15.2856 55.4333 15.2856Z" fill="white"/>
<path d="M47.9743 16.7331C46.0405 16.7331 44.627 15.4326 44.627 13.6006C44.627 11.7686 46.0405 10.4681 47.9743 10.4681C49.9081 10.4681 51.3104 11.7686 51.3104 13.6006C51.3104 15.4326 49.9081 16.7331 47.9743 16.7331ZM47.9743 15.2856C48.8564 15.2856 49.5236 14.6523 49.5236 13.6006C49.5236 12.5489 48.8564 11.9156 47.9743 11.9156C47.0922 11.9156 46.4137 12.5489 46.4137 13.6006C46.4137 14.6523 47.0922 15.2856 47.9743 15.2856Z" fill="white"/>
<path d="M41.7802 14.8785V12.5602H43.4538V15.7719C42.5831 16.4278 41.3844 16.7783 40.2535 16.7783C37.7656 16.7783 35.9336 15.0707 35.9336 12.6846C35.9336 10.2985 37.7656 8.59088 40.2874 8.59088C41.6784 8.59088 42.8319 9.06584 43.6009 9.95923L42.4248 11.0449C41.848 10.4342 41.1808 10.1515 40.3779 10.1515C38.8399 10.1515 37.7882 11.1806 37.7882 12.6846C37.7882 14.166 38.8399 15.2177 40.3553 15.2177C40.8529 15.2177 41.3165 15.1273 41.7802 14.8785Z" fill="white"/>
</svg>
