<svg width="26" height="25" viewBox="0 0 26 25" fill="none" xmlns="http://www.w3.org/2000/svg">
<path d="M19.6743 4.32825C18.8495 4.32825 18.1777 5.00002 18.1777 5.82485C18.1777 6.64968 18.8495 7.32145 19.6743 7.32145C20.4992 7.32145 21.1709 6.64968 21.1709 5.82485C21.1709 5.00002 20.4992 4.32825 19.6743 4.32825Z" fill="#61AB93"/>
<path d="M23.3997 2.10034C22.7789 1.46258 22.0221 0.969387 21.1888 0.654762C20.3895 0.348639 19.4881 0.136055 18.1531 0.0765307C16.818 0.0170069 16.3929 0 13 0C9.60714 0 9.18197 0.0170069 7.84694 0.0765307C6.52041 0.136055 5.61054 0.348639 4.81122 0.654762C3.97789 0.969387 3.22109 1.46258 2.60034 2.10034C1.96258 2.72109 1.46939 3.47789 1.15476 4.31122C0.848639 5.11054 0.636055 6.0119 0.576531 7.34694C0.517007 8.68197 0.5 9.10714 0.5 12.5C0.5 15.8929 0.517007 16.318 0.576531 17.6531C0.636055 18.9796 0.848639 19.8895 1.15476 20.6888C1.46939 21.5221 1.96258 22.2789 2.60034 22.8997C3.22109 23.5374 3.97789 24.0306 4.81122 24.3452C5.60204 24.6514 6.5119 24.8639 7.84694 24.9235C9.18197 24.983 9.60714 25 13 25C16.3929 25 16.818 24.983 18.1531 24.9235C19.4796 24.8639 20.3895 24.6514 21.1888 24.3452C22.8639 23.699 24.199 22.3724 24.8452 20.6888C25.1514 19.8895 25.3639 18.9881 25.4235 17.6531C25.483 16.318 25.5 15.8929 25.5 12.5C25.5 9.10714 25.483 8.68197 25.4235 7.34694C25.3639 6.02041 25.1514 5.11054 24.8452 4.31122C24.5306 3.47789 24.0374 2.72109 23.3997 2.10034ZM23.1786 17.551C23.119 18.767 22.915 19.4303 22.7449 19.8724C22.3282 20.9609 21.4609 21.8282 20.3724 22.2449C19.9303 22.415 19.267 22.619 18.051 22.6786C16.733 22.7381 16.3418 22.7551 13 22.7551C9.65816 22.7551 9.26701 22.7466 7.94898 22.6786C6.73299 22.619 6.06973 22.4235 5.62755 22.2449C5.08333 22.0408 4.59014 21.7262 4.19048 21.3095C3.77381 20.9099 3.45918 20.4167 3.2551 19.8724C3.08503 19.4303 2.88095 18.767 2.82143 17.551C2.7619 16.233 2.7449 15.8333 2.7449 12.5C2.7449 9.15816 2.7619 8.76701 2.82143 7.44898C2.88095 6.23299 3.07653 5.56973 3.2551 5.12755C3.45918 4.58333 3.77381 4.09014 4.19048 3.69048C4.59014 3.27381 5.08333 2.95918 5.62755 2.7551C6.06973 2.58503 6.73299 2.38095 7.94898 2.32143C9.26701 2.2619 9.65816 2.2449 13 2.2449C16.3333 2.2449 16.733 2.2619 18.051 2.32143C19.267 2.38095 19.9303 2.57653 20.3724 2.7551C20.9167 2.95918 21.4099 3.27381 21.8095 3.69048C22.2262 4.09014 22.5408 4.58333 22.7449 5.12755C22.915 5.56973 23.119 6.23299 23.1786 7.44898C23.2381 8.76701 23.2551 9.15816 23.2551 12.5C23.2466 15.8418 23.2381 16.233 23.1786 17.551Z" fill="#61AB93"/>
<path d="M13.0001 6.07996C9.45423 6.07996 6.58008 8.95411 6.58008 12.5C6.58008 16.0459 9.45423 18.9201 13.0001 18.9201C16.5461 18.9201 19.4202 16.0459 19.4202 12.5C19.4202 8.95411 16.5461 6.07996 13.0001 6.07996ZM13.0001 16.6667C10.6957 16.6667 8.83348 14.8044 8.83348 12.5C8.83348 10.1956 10.6957 8.33336 13.0001 8.33336C15.3046 8.33336 17.1668 10.1956 17.1668 12.5C17.1668 14.8044 15.3046 16.6667 13.0001 16.6667Z" fill="#61AB93"/>
</svg>
