<svg width="16" height="17" viewBox="0 0 16 17" fill="none" xmlns="http://www.w3.org/2000/svg">
<path d="M7.99935 1.83337C6.58486 1.83337 5.22831 2.39528 4.22811 3.39547C3.22792 4.39567 2.66602 5.75222 2.66602 7.16671C2.66602 10.7667 7.36602 14.8334 7.56602 15.0067C7.68677 15.11 7.84045 15.1668 7.99935 15.1668C8.15825 15.1668 8.31193 15.11 8.43268 15.0067C8.66602 14.8334 13.3327 10.7667 13.3327 7.16671C13.3327 5.75222 12.7708 4.39567 11.7706 3.39547C10.7704 2.39528 9.41384 1.83337 7.99935 1.83337V1.83337ZM7.99935 13.6C6.57935 12.2667 3.99935 9.39337 3.99935 7.16671C3.99935 6.10584 4.42078 5.08843 5.17092 4.33828C5.92107 3.58813 6.93848 3.16671 7.99935 3.16671C9.06021 3.16671 10.0776 3.58813 10.8278 4.33828C11.5779 5.08843 11.9993 6.10584 11.9993 7.16671C11.9993 9.39337 9.41935 12.2734 7.99935 13.6ZM7.99935 4.50004C7.47193 4.50004 6.95636 4.65644 6.51783 4.94946C6.0793 5.24247 5.7375 5.65895 5.53567 6.14622C5.33384 6.63349 5.28103 7.16967 5.38392 7.68695C5.48682 8.20423 5.74079 8.67939 6.11373 9.05233C6.48667 9.42527 6.96183 9.67924 7.47911 9.78214C7.99639 9.88503 8.53257 9.83222 9.01984 9.63039C9.50711 9.42855 9.92358 9.08676 10.2166 8.64823C10.5096 8.2097 10.666 7.69412 10.666 7.16671C10.666 6.45946 10.3851 5.78119 9.88497 5.28109C9.38487 4.78099 8.70659 4.50004 7.99935 4.50004ZM7.99935 8.50004C7.73564 8.50004 7.47785 8.42184 7.25859 8.27533C7.03932 8.12883 6.86843 7.92059 6.76751 7.67695C6.66659 7.43332 6.64019 7.16523 6.69163 6.90659C6.74308 6.64795 6.87007 6.41037 7.05654 6.2239C7.24301 6.03743 7.48059 5.91044 7.73923 5.85899C7.99787 5.80755 8.26596 5.83395 8.50959 5.93487C8.75323 6.03578 8.96147 6.20668 9.10797 6.42595C9.25448 6.64521 9.33268 6.903 9.33268 7.16671C9.33268 7.52033 9.19221 7.85947 8.94216 8.10952C8.69211 8.35956 8.35297 8.50004 7.99935 8.50004Z" fill="black"/>
</svg>
