<svg width="16" height="17" viewBox="0 0 16 17" fill="none" xmlns="http://www.w3.org/2000/svg">
<path d="M12.9391 9.16671C12.7925 9.16671 12.6391 9.12004 12.4925 9.08671C12.1957 9.02035 11.9039 8.93347 11.6191 8.82671C11.3099 8.71419 10.9699 8.72004 10.6647 8.84311C10.3595 8.96619 10.1105 9.1978 9.9658 9.49337L9.81914 9.80004C9.17169 9.43284 8.57356 8.98481 8.03914 8.46671C7.52104 7.93229 7.073 7.33416 6.7058 6.68671L7.01247 6.54671C7.30805 6.40198 7.53966 6.15306 7.66273 5.84784C7.78581 5.54261 7.79165 5.20265 7.67914 4.89337C7.57326 4.60606 7.48641 4.31209 7.41914 4.01337C7.3858 3.86671 7.35914 3.71337 7.33914 3.56671C7.25818 3.09712 7.01222 2.67187 6.64555 2.36753C6.27888 2.0632 5.8156 1.89978 5.33914 1.90671H3.33247C3.05064 1.90634 2.7719 1.96554 2.51455 2.08043C2.2572 2.19532 2.02703 2.36331 1.83914 2.57337C1.64735 2.78914 1.50455 3.04387 1.42054 3.32006C1.33653 3.59626 1.31331 3.88736 1.35247 4.17337C1.71486 6.94813 2.98261 9.52581 4.95914 11.5067C6.94004 13.4832 9.51771 14.751 12.2925 15.1134C12.379 15.12 12.4659 15.12 12.5525 15.1134C13.0441 15.1141 13.5187 14.9337 13.8858 14.6067C14.0959 14.4188 14.2639 14.1887 14.3787 13.9313C14.4936 13.6739 14.5528 13.3952 14.5525 13.1134V11.1134C14.5489 10.6527 14.3864 10.2075 14.0924 9.85277C13.7985 9.49809 13.3911 9.25575 12.9391 9.16671ZM13.2658 13.1667C13.2656 13.2597 13.2459 13.3517 13.208 13.4367C13.1701 13.5216 13.1149 13.5977 13.0458 13.66C12.9727 13.7266 12.8858 13.7761 12.7912 13.8049C12.6967 13.8337 12.5969 13.8412 12.4991 13.8267C10.0113 13.5018 7.6993 12.368 5.91914 10.6C4.13745 8.81835 2.99382 6.49829 2.6658 4.00004C2.65132 3.90226 2.65876 3.80249 2.68759 3.70794C2.71641 3.61339 2.7659 3.52644 2.83247 3.45337C2.89555 3.38348 2.97272 3.32773 3.0589 3.28981C3.14508 3.25189 3.23832 3.23266 3.33247 3.23337H5.33247C5.48658 3.22961 5.63723 3.27936 5.75878 3.37417C5.88033 3.46898 5.96527 3.60299 5.99914 3.75337C5.99914 3.93337 6.05914 4.12004 6.09914 4.30004C6.17619 4.64928 6.27868 4.99242 6.4058 5.32671L5.47247 5.76671C5.31205 5.84035 5.18738 5.97461 5.12581 6.14004C5.05913 6.30235 5.05913 6.4844 5.12581 6.64671C6.08527 8.70188 7.7373 10.3539 9.79247 11.3134C9.95478 11.3801 10.1368 11.3801 10.2991 11.3134C10.4646 11.2518 10.5988 11.1271 10.6725 10.9667L11.0925 10.0334C11.4364 10.1588 11.7883 10.2612 12.1458 10.34C12.3191 10.38 12.5058 10.4134 12.6858 10.44C12.8362 10.4739 12.9702 10.5588 13.065 10.6804C13.1598 10.8019 13.2096 10.9526 13.2058 11.1067L13.2658 13.1667ZM9.33247 1.83337C9.17914 1.83337 9.01914 1.83337 8.8658 1.83337C8.68899 1.8484 8.52539 1.93305 8.411 2.06871C8.2966 2.20436 8.24078 2.3799 8.2558 2.55671C8.27083 2.73352 8.35548 2.89712 8.49114 3.01151C8.62679 3.12591 8.80233 3.18174 8.97914 3.16671H9.33247C10.3933 3.16671 11.4108 3.58813 12.1609 4.33828C12.911 5.08843 13.3325 6.10584 13.3325 7.16671C13.3325 7.28671 13.3325 7.40004 13.3325 7.52004C13.3177 7.69591 13.3733 7.87047 13.487 8.00544C13.6007 8.14041 13.7633 8.22478 13.9391 8.24004H13.9925C14.1594 8.24072 14.3204 8.17877 14.4439 8.06645C14.5673 7.95412 14.6441 7.79959 14.6591 7.63337C14.6591 7.48004 14.6591 7.32004 14.6591 7.16671C14.6591 5.75337 14.0982 4.39783 13.0994 3.39783C12.1006 2.39782 10.7458 1.83514 9.33247 1.83337V1.83337ZM10.6658 7.16671C10.6658 7.34352 10.736 7.51309 10.8611 7.63811C10.9861 7.76314 11.1557 7.83337 11.3325 7.83337C11.5093 7.83337 11.6789 7.76314 11.8039 7.63811C11.9289 7.51309 11.9991 7.34352 11.9991 7.16671C11.9991 6.45946 11.7182 5.78119 11.2181 5.28109C10.718 4.78099 10.0397 4.50004 9.33247 4.50004C9.15566 4.50004 8.98609 4.57028 8.86107 4.6953C8.73604 4.82033 8.6658 4.9899 8.6658 5.16671C8.6658 5.34352 8.73604 5.51309 8.86107 5.63811C8.98609 5.76314 9.15566 5.83337 9.33247 5.83337C9.68609 5.83337 10.0252 5.97385 10.2753 6.2239C10.5253 6.47395 10.6658 6.81309 10.6658 7.16671Z" fill="black"/>
</svg>
